<svg width="260" height="320" viewBox="0 0 260 320" xmlns="http://www.w3.org/2000/svg">
  <defs>
    <pattern id="scan2" width="4" height="4" patternUnits="userSpaceOnUse">
      <rect width="4" height="4" fill="#070c0b"/>
      <line x1="0" y1="0" x2="4" y2="0" stroke="#0f1a17" stroke-width="1"/>
    </pattern>
  </defs>
  <rect width="260" height="320" fill="#070c0b"/>
  <rect width="260" height="320" fill="url(#scan2)" opacity="0.35"/>
  <rect x="1" y="1" width="258" height="318" fill="none" stroke="#4a6b60" stroke-width="1" opacity="0.6"/>
  <path d="M12 30 L12 12 L30 12" stroke="#8ffcd0" stroke-width="2" fill="none"/><path d="M248 30 L248 12 L230 12" stroke="#8ffcd0" stroke-width="2" fill="none"/><path d="M12 290 L12 308 L30 308" stroke="#8ffcd0" stroke-width="2" fill="none"/><path d="M248 290 L248 308 L230 308" stroke="#8ffcd0" stroke-width="2" fill="none"/>

  <text x="26" y="40" font-family="Consolas, monospace" font-size="12" fill="#8ffcd0">&gt; LANGUAGE INDEX</text>
  <line x1="26" y1="50" x2="234" y2="50" stroke="#4a6b60" stroke-width="1"/>

  
        <text x="26" y="92" font-family="Consolas, monospace" font-size="10" fill="#5f8a7d">PYTHON</text>
        <rect x="26" y="98" width="140" height="6" fill="none" stroke="#4a6b60" stroke-width="1"/>
        <rect x="26" y="98" width="140" height="6" fill="#8ffcd0" opacity="0.85"/>
        
  <text x="26" y="142" font-family="Consolas, monospace" font-size="11" fill="#8ffcd0">&gt; RECENT ACTIVITY</text><text x="26" y="160" font-family="Consolas, monospace" font-size="10" fill="#5f8a7d">- GHOZT-ZX</text>

  <line x1="26" y1="290" x2="234" y2="290" stroke="#4a6b60" stroke-width="1"/>
  <text x="26" y="306" font-family="Consolas, monospace" font-size="9" fill="#5f8a7d">STATUS: INDEXED</text>
</svg>